<mxfile host="app.diagrams.net" modified="2023-09-20T14:10:57.257Z" agent="Mozilla/5.0 (Windows NT 10.0; Win64; x64) AppleWebKit/537.36 (KHTML, like Gecko) Chrome/116.0.0.0 Safari/537.36" etag="AjU0Z1G5PNHzs5sGPXRT" version="21.3.8" type="device">
  <diagram name="Page-1" id="rSHECDHE9U5fLfE5nbUG">
    <mxGraphModel dx="1509" dy="798" grid="1" gridSize="10" guides="1" tooltips="1" connect="1" arrows="1" fold="1" page="1" pageScale="1" pageWidth="827" pageHeight="1169" math="0" shadow="0">
      <root>
        <mxCell id="0" />
        <mxCell id="1" parent="0" />
        <mxCell id="u0FFRHkFA7CscfNy6XQj-52" value="ad" style="swimlane;fontStyle=0;childLayout=stackLayout;horizontal=1;startSize=26;horizontalStack=0;resizeParent=1;resizeParentMax=0;resizeLast=0;collapsible=1;marginBottom=0;align=center;fontSize=14;" parent="1" vertex="1">
          <mxGeometry x="200" y="160" width="120" height="56" as="geometry" />
        </mxCell>
        <mxCell id="u0FFRHkFA7CscfNy6XQj-82" value="categorie" style="swimlane;fontStyle=0;childLayout=stackLayout;horizontal=1;startSize=26;horizontalStack=0;resizeParent=1;resizeParentMax=0;resizeLast=0;collapsible=1;marginBottom=0;align=center;fontSize=14;" parent="1" vertex="1">
          <mxGeometry x="560" y="160" width="120" height="56" as="geometry" />
        </mxCell>
        <mxCell id="aF-noyhn2wu3yqKL34jn-5" value="" style="endArrow=none;html=1;rounded=0;exitX=1;exitY=0.5;exitDx=0;exitDy=0;entryX=0;entryY=0.5;entryDx=0;entryDy=0;endSize=0;endFill=0;" edge="1" parent="1" source="u0FFRHkFA7CscfNy6XQj-52" target="u0FFRHkFA7CscfNy6XQj-82">
          <mxGeometry relative="1" as="geometry">
            <mxPoint x="480" y="240" as="sourcePoint" />
            <mxPoint x="640" y="240" as="targetPoint" />
          </mxGeometry>
        </mxCell>
        <mxCell id="aF-noyhn2wu3yqKL34jn-6" value="register" style="edgeLabel;resizable=0;html=1;align=center;verticalAlign=middle;" connectable="0" vertex="1" parent="aF-noyhn2wu3yqKL34jn-5">
          <mxGeometry relative="1" as="geometry" />
        </mxCell>
        <mxCell id="aF-noyhn2wu3yqKL34jn-7" value="1,1" style="edgeLabel;resizable=0;html=1;align=left;verticalAlign=bottom;" connectable="0" vertex="1" parent="aF-noyhn2wu3yqKL34jn-5">
          <mxGeometry x="-1" relative="1" as="geometry" />
        </mxCell>
        <mxCell id="aF-noyhn2wu3yqKL34jn-8" value="0,n" style="edgeLabel;resizable=0;html=1;align=right;verticalAlign=bottom;" connectable="0" vertex="1" parent="aF-noyhn2wu3yqKL34jn-5">
          <mxGeometry x="1" relative="1" as="geometry" />
        </mxCell>
        <mxCell id="aF-noyhn2wu3yqKL34jn-9" value="ad" style="swimlane;fontStyle=0;childLayout=stackLayout;horizontal=1;startSize=26;horizontalStack=0;resizeParent=1;resizeParentMax=0;resizeLast=0;collapsible=1;marginBottom=0;align=center;fontSize=14;" vertex="1" parent="1">
          <mxGeometry x="201" y="252" width="120" height="266" as="geometry" />
        </mxCell>
        <mxCell id="aF-noyhn2wu3yqKL34jn-17" value="id" style="text;strokeColor=none;fillColor=none;spacingLeft=4;spacingRight=4;overflow=hidden;rotatable=0;points=[[0,0.5],[1,0.5]];portConstraint=eastwest;fontSize=12;whiteSpace=wrap;html=1;" vertex="1" parent="aF-noyhn2wu3yqKL34jn-9">
          <mxGeometry y="26" width="120" height="30" as="geometry" />
        </mxCell>
        <mxCell id="aF-noyhn2wu3yqKL34jn-18" value="title" style="text;strokeColor=none;fillColor=none;spacingLeft=4;spacingRight=4;overflow=hidden;rotatable=0;points=[[0,0.5],[1,0.5]];portConstraint=eastwest;fontSize=12;whiteSpace=wrap;html=1;" vertex="1" parent="aF-noyhn2wu3yqKL34jn-9">
          <mxGeometry y="56" width="120" height="30" as="geometry" />
        </mxCell>
        <mxCell id="aF-noyhn2wu3yqKL34jn-19" value="description" style="text;strokeColor=none;fillColor=none;spacingLeft=4;spacingRight=4;overflow=hidden;rotatable=0;points=[[0,0.5],[1,0.5]];portConstraint=eastwest;fontSize=12;whiteSpace=wrap;html=1;" vertex="1" parent="aF-noyhn2wu3yqKL34jn-9">
          <mxGeometry y="86" width="120" height="30" as="geometry" />
        </mxCell>
        <mxCell id="aF-noyhn2wu3yqKL34jn-21" value="owner" style="text;strokeColor=none;fillColor=none;spacingLeft=4;spacingRight=4;overflow=hidden;rotatable=0;points=[[0,0.5],[1,0.5]];portConstraint=eastwest;fontSize=12;whiteSpace=wrap;html=1;" vertex="1" parent="aF-noyhn2wu3yqKL34jn-9">
          <mxGeometry y="116" width="120" height="30" as="geometry" />
        </mxCell>
        <mxCell id="aF-noyhn2wu3yqKL34jn-20" value="price" style="text;strokeColor=none;fillColor=none;spacingLeft=4;spacingRight=4;overflow=hidden;rotatable=0;points=[[0,0.5],[1,0.5]];portConstraint=eastwest;fontSize=12;whiteSpace=wrap;html=1;" vertex="1" parent="aF-noyhn2wu3yqKL34jn-9">
          <mxGeometry y="146" width="120" height="30" as="geometry" />
        </mxCell>
        <mxCell id="aF-noyhn2wu3yqKL34jn-22" value="picture" style="text;strokeColor=none;fillColor=none;spacingLeft=4;spacingRight=4;overflow=hidden;rotatable=0;points=[[0,0.5],[1,0.5]];portConstraint=eastwest;fontSize=12;whiteSpace=wrap;html=1;" vertex="1" parent="aF-noyhn2wu3yqKL34jn-9">
          <mxGeometry y="176" width="120" height="30" as="geometry" />
        </mxCell>
        <mxCell id="aF-noyhn2wu3yqKL34jn-24" value="location" style="text;strokeColor=none;fillColor=none;spacingLeft=4;spacingRight=4;overflow=hidden;rotatable=0;points=[[0,0.5],[1,0.5]];portConstraint=eastwest;fontSize=12;whiteSpace=wrap;html=1;" vertex="1" parent="aF-noyhn2wu3yqKL34jn-9">
          <mxGeometry y="206" width="120" height="30" as="geometry" />
        </mxCell>
        <mxCell id="aF-noyhn2wu3yqKL34jn-23" value="createdAt" style="text;strokeColor=none;fillColor=none;spacingLeft=4;spacingRight=4;overflow=hidden;rotatable=0;points=[[0,0.5],[1,0.5]];portConstraint=eastwest;fontSize=12;whiteSpace=wrap;html=1;" vertex="1" parent="aF-noyhn2wu3yqKL34jn-9">
          <mxGeometry y="236" width="120" height="30" as="geometry" />
        </mxCell>
        <mxCell id="aF-noyhn2wu3yqKL34jn-10" value="categorie" style="swimlane;fontStyle=0;childLayout=stackLayout;horizontal=1;startSize=26;horizontalStack=0;resizeParent=1;resizeParentMax=0;resizeLast=0;collapsible=1;marginBottom=0;align=center;fontSize=14;" vertex="1" parent="1">
          <mxGeometry x="561" y="252" width="120" height="86" as="geometry" />
        </mxCell>
        <mxCell id="aF-noyhn2wu3yqKL34jn-25" value="id" style="text;strokeColor=none;fillColor=none;spacingLeft=4;spacingRight=4;overflow=hidden;rotatable=0;points=[[0,0.5],[1,0.5]];portConstraint=eastwest;fontSize=12;whiteSpace=wrap;html=1;" vertex="1" parent="aF-noyhn2wu3yqKL34jn-10">
          <mxGeometry y="26" width="120" height="30" as="geometry" />
        </mxCell>
        <mxCell id="aF-noyhn2wu3yqKL34jn-28" value="name" style="text;strokeColor=none;fillColor=none;spacingLeft=4;spacingRight=4;overflow=hidden;rotatable=0;points=[[0,0.5],[1,0.5]];portConstraint=eastwest;fontSize=12;whiteSpace=wrap;html=1;" vertex="1" parent="aF-noyhn2wu3yqKL34jn-10">
          <mxGeometry y="56" width="120" height="30" as="geometry" />
        </mxCell>
        <mxCell id="aF-noyhn2wu3yqKL34jn-11" value="" style="endArrow=none;html=1;rounded=0;entryX=-0.019;entryY=1.024;entryDx=0;entryDy=0;endSize=0;endFill=0;entryPerimeter=0;exitX=1.019;exitY=0.957;exitDx=0;exitDy=0;exitPerimeter=0;" edge="1" parent="1" source="aF-noyhn2wu3yqKL34jn-23" target="aF-noyhn2wu3yqKL34jn-25">
          <mxGeometry relative="1" as="geometry">
            <mxPoint x="320" y="500" as="sourcePoint" />
            <mxPoint x="641" y="332" as="targetPoint" />
          </mxGeometry>
        </mxCell>
        <mxCell id="aF-noyhn2wu3yqKL34jn-13" value="1,1" style="edgeLabel;resizable=0;html=1;align=left;verticalAlign=bottom;" connectable="0" vertex="1" parent="aF-noyhn2wu3yqKL34jn-11">
          <mxGeometry x="-1" relative="1" as="geometry" />
        </mxCell>
        <mxCell id="aF-noyhn2wu3yqKL34jn-14" value="0,n" style="edgeLabel;resizable=0;html=1;align=right;verticalAlign=bottom;" connectable="0" vertex="1" parent="aF-noyhn2wu3yqKL34jn-11">
          <mxGeometry x="1" relative="1" as="geometry" />
        </mxCell>
        <mxCell id="aF-noyhn2wu3yqKL34jn-29" value="ad" style="swimlane;fontStyle=0;childLayout=stackLayout;horizontal=1;startSize=26;horizontalStack=0;resizeParent=1;resizeParentMax=0;resizeLast=0;collapsible=1;marginBottom=0;align=center;fontSize=14;" vertex="1" parent="1">
          <mxGeometry x="200" y="560" width="190" height="296" as="geometry" />
        </mxCell>
        <mxCell id="aF-noyhn2wu3yqKL34jn-30" value="id&amp;nbsp; INT NOT NULL&amp;nbsp;" style="text;strokeColor=none;fillColor=none;spacingLeft=4;spacingRight=4;overflow=hidden;rotatable=0;points=[[0,0.5],[1,0.5]];portConstraint=eastwest;fontSize=12;whiteSpace=wrap;html=1;" vertex="1" parent="aF-noyhn2wu3yqKL34jn-29">
          <mxGeometry y="26" width="190" height="30" as="geometry" />
        </mxCell>
        <mxCell id="aF-noyhn2wu3yqKL34jn-31" value="title&amp;nbsp; VARCHAR(100)" style="text;strokeColor=none;fillColor=none;spacingLeft=4;spacingRight=4;overflow=hidden;rotatable=0;points=[[0,0.5],[1,0.5]];portConstraint=eastwest;fontSize=12;whiteSpace=wrap;html=1;" vertex="1" parent="aF-noyhn2wu3yqKL34jn-29">
          <mxGeometry y="56" width="190" height="30" as="geometry" />
        </mxCell>
        <mxCell id="aF-noyhn2wu3yqKL34jn-32" value="description&amp;nbsp; TEXT" style="text;strokeColor=none;fillColor=none;spacingLeft=4;spacingRight=4;overflow=hidden;rotatable=0;points=[[0,0.5],[1,0.5]];portConstraint=eastwest;fontSize=12;whiteSpace=wrap;html=1;" vertex="1" parent="aF-noyhn2wu3yqKL34jn-29">
          <mxGeometry y="86" width="190" height="30" as="geometry" />
        </mxCell>
        <mxCell id="aF-noyhn2wu3yqKL34jn-33" value="owner&amp;nbsp; VARCHAR(100)" style="text;strokeColor=none;fillColor=none;spacingLeft=4;spacingRight=4;overflow=hidden;rotatable=0;points=[[0,0.5],[1,0.5]];portConstraint=eastwest;fontSize=12;whiteSpace=wrap;html=1;" vertex="1" parent="aF-noyhn2wu3yqKL34jn-29">
          <mxGeometry y="116" width="190" height="30" as="geometry" />
        </mxCell>
        <mxCell id="aF-noyhn2wu3yqKL34jn-34" value="price&amp;nbsp; INT" style="text;strokeColor=none;fillColor=none;spacingLeft=4;spacingRight=4;overflow=hidden;rotatable=0;points=[[0,0.5],[1,0.5]];portConstraint=eastwest;fontSize=12;whiteSpace=wrap;html=1;" vertex="1" parent="aF-noyhn2wu3yqKL34jn-29">
          <mxGeometry y="146" width="190" height="30" as="geometry" />
        </mxCell>
        <mxCell id="aF-noyhn2wu3yqKL34jn-35" value="picture&amp;nbsp; VARCHAR(100)" style="text;strokeColor=none;fillColor=none;spacingLeft=4;spacingRight=4;overflow=hidden;rotatable=0;points=[[0,0.5],[1,0.5]];portConstraint=eastwest;fontSize=12;whiteSpace=wrap;html=1;" vertex="1" parent="aF-noyhn2wu3yqKL34jn-29">
          <mxGeometry y="176" width="190" height="30" as="geometry" />
        </mxCell>
        <mxCell id="aF-noyhn2wu3yqKL34jn-36" value="location&amp;nbsp; VARCHAR(100)" style="text;strokeColor=none;fillColor=none;spacingLeft=4;spacingRight=4;overflow=hidden;rotatable=0;points=[[0,0.5],[1,0.5]];portConstraint=eastwest;fontSize=12;whiteSpace=wrap;html=1;" vertex="1" parent="aF-noyhn2wu3yqKL34jn-29">
          <mxGeometry y="206" width="190" height="30" as="geometry" />
        </mxCell>
        <mxCell id="aF-noyhn2wu3yqKL34jn-45" value="createdAt&amp;nbsp; DATE" style="text;strokeColor=none;fillColor=none;spacingLeft=4;spacingRight=4;overflow=hidden;rotatable=0;points=[[0,0.5],[1,0.5]];portConstraint=eastwest;fontSize=12;whiteSpace=wrap;html=1;" vertex="1" parent="aF-noyhn2wu3yqKL34jn-29">
          <mxGeometry y="236" width="190" height="30" as="geometry" />
        </mxCell>
        <mxCell id="aF-noyhn2wu3yqKL34jn-37" value="categorie_id&amp;nbsp; INT NOT NULL" style="text;strokeColor=none;fillColor=none;spacingLeft=4;spacingRight=4;overflow=hidden;rotatable=0;points=[[0,0.5],[1,0.5]];portConstraint=eastwest;fontSize=12;whiteSpace=wrap;html=1;" vertex="1" parent="aF-noyhn2wu3yqKL34jn-29">
          <mxGeometry y="266" width="190" height="30" as="geometry" />
        </mxCell>
        <mxCell id="aF-noyhn2wu3yqKL34jn-38" value="categorie" style="swimlane;fontStyle=0;childLayout=stackLayout;horizontal=1;startSize=26;horizontalStack=0;resizeParent=1;resizeParentMax=0;resizeLast=0;collapsible=1;marginBottom=0;align=center;fontSize=14;" vertex="1" parent="1">
          <mxGeometry x="561" y="560" width="139" height="86" as="geometry" />
        </mxCell>
        <mxCell id="aF-noyhn2wu3yqKL34jn-39" value="id&amp;nbsp; INT NOT NULL&amp;nbsp;" style="text;strokeColor=none;fillColor=none;spacingLeft=4;spacingRight=4;overflow=hidden;rotatable=0;points=[[0,0.5],[1,0.5]];portConstraint=eastwest;fontSize=12;whiteSpace=wrap;html=1;" vertex="1" parent="aF-noyhn2wu3yqKL34jn-38">
          <mxGeometry y="26" width="139" height="30" as="geometry" />
        </mxCell>
        <mxCell id="aF-noyhn2wu3yqKL34jn-40" value="name&amp;nbsp; VARCHAR(100)" style="text;strokeColor=none;fillColor=none;spacingLeft=4;spacingRight=4;overflow=hidden;rotatable=0;points=[[0,0.5],[1,0.5]];portConstraint=eastwest;fontSize=12;whiteSpace=wrap;html=1;" vertex="1" parent="aF-noyhn2wu3yqKL34jn-38">
          <mxGeometry y="56" width="139" height="30" as="geometry" />
        </mxCell>
        <mxCell id="aF-noyhn2wu3yqKL34jn-41" value="" style="endArrow=none;html=1;rounded=0;exitX=1;exitY=0.5;exitDx=0;exitDy=0;entryX=-0.005;entryY=1.024;entryDx=0;entryDy=0;endSize=0;endFill=0;entryPerimeter=0;" edge="1" parent="1" source="aF-noyhn2wu3yqKL34jn-37" target="aF-noyhn2wu3yqKL34jn-39">
          <mxGeometry relative="1" as="geometry">
            <mxPoint x="481" y="640" as="sourcePoint" />
            <mxPoint x="641" y="640" as="targetPoint" />
          </mxGeometry>
        </mxCell>
      </root>
    </mxGraphModel>
  </diagram>
</mxfile>
